<?xml version="1.0" encoding="UTF-8" standalone="no"?>
<!-- Created with Inkscape (http://www.inkscape.org/) -->

<svg
   width="210mm"
   height="297mm"
   viewBox="0 0 210 297"
   version="1.1"
   id="svg5"
   xml:space="preserve"
   inkscape:version="1.2.1 (9c6d41e410, 2022-07-14)"
   sodipodi:docname="desenho.svg"
   xmlns:inkscape="http://www.inkscape.org/namespaces/inkscape"
   xmlns:sodipodi="http://sodipodi.sourceforge.net/DTD/sodipodi-0.dtd"
   xmlns="http://www.w3.org/2000/svg"
   xmlns:svg="http://www.w3.org/2000/svg"><sodipodi:namedview
     id="namedview7"
     pagecolor="#ffffff"
     bordercolor="#000000"
     borderopacity="0.25"
     inkscape:showpageshadow="2"
     inkscape:pageopacity="0.0"
     inkscape:pagecheckerboard="0"
     inkscape:deskcolor="#d1d1d1"
     inkscape:document-units="mm"
     showgrid="false"
     inkscape:zoom="1"
     inkscape:cx="588"
     inkscape:cy="549"
     inkscape:window-width="1920"
     inkscape:window-height="1017"
     inkscape:window-x="-8"
     inkscape:window-y="-8"
     inkscape:window-maximized="1"
     inkscape:current-layer="layer1" /><defs
     id="defs2" /><g
     inkscape:label="Camada 1"
     inkscape:groupmode="layer"
     id="layer1"><path
       id="path4655"
       style="fill:#e6e6e6;stroke-width:0.643897"
       d="m 172.79104,110.5956 0.37061,0.96623 0.37059,0.96554 h 0.42266 l 2.02108,7.79109 -0.0183,0.0183 0.0162,0.0239 -0.004,0.10829 0.0471,-0.0471 1.72362,2.5014 1.44865,1.59913 v 0.76372 0.76301 h 0.14768 l 2.79605,3.11882 1.01758,2.03936 1.23909,0.66315 1.23908,0.66315 v 1.00492 1.0049 l 1.10407,1.86919 1.10478,1.8699 2.73415,1.04429 2.73488,1.0443 0.98944,-0.37974 0.98944,-0.37904 1.44935,0.58227 1.44936,0.58227 0.1934,0.0415 0.19268,0.0408 1.89943,-0.98242 3.18773,-0.9585 v 0.01 h 0.60619 0.60548 l 0.3938,-0.63642 0.39312,-0.63644 -0.9993,0.38327 -0.53445,0.20535 0.003,-0.007 -3.36496,0.53305 -1.60969,0.30731 v -1.04078 -1.04079 h -0.67369 -0.67299 l -1.67721,-1.6772 -1.67649,-1.67721 -1.35232,-0.16103 -1.35232,-0.16104 -2.25384,-1.39029 -2.25316,-1.39029 -1.12726,-0.38817 -1.12658,-0.38819 v -1.66314 -1.66313 l -0.75739,0.75737 -0.75737,0.75738 -0.86779,-0.72081 -2.29113,-1.34879 -0.2609,-0.95851 -0.3066,-1.12657 -3.02671,-4.07381 0.0317,-0.0317 -0.33825,-0.84457 -1.72784,-6.38251 v -0.90156 -0.96623 h -0.94585 z" /><path
       id="santaisabel"
       style="fill:#e6e6e6;stroke-width:0.643897"
       d="m 104.57349,99.650521 -0.40436,0.654709 -0.40504,0.654 -0.59917,-0.37061 -0.59915,-0.36988 v 1.32559 1.32558 h -0.73135 -0.73065 l -1.568913,1.69268 -1.568207,1.69267 -0.699719,-0.69971 -0.69971,-0.69901 0.739806,-0.8917 0.739786,-0.89099 -0.423345,-0.42404 -0.424048,-0.42335 h -0.968347 -0.96905 l -1.220803,1.10478 -1.220804,1.10476 -2.260892,0.0752 -0.880445,0.0295 -0.0935,0.003 c 0.0049,0.0392 0.0078,0.0786 0.01133,0.11812 9.38e-4,0.0139 5.66e-4,0.0277 9.77e-4,0.0415 6.74e-4,0.003 9.77e-4,0.006 9.77e-4,0.008 1.85e-4,0.003 5.18e-4,0.004 7.03e-4,0.007 7.23e-4,0.0163 4.98e-4,0.0322 0,0.0486 -2.9e-5,9.1e-4 2.9e-5,9.8e-4 0,0.003 8.8e-5,0.0108 0.002,0.0211 9.77e-4,0.0316 h 0.472567 l 0.708864,0.70885 0.708854,0.70957 -1.572427,2.31714 -1.573121,2.31785 1.636411,0.85724 1.636421,0.85723 v 1.26722 1.26723 h 1.287612 1.288324 v 0.98592 0.98594 l -1.127285,0.4163 -1.126572,0.41562 -0.322079,0.36848 -0.322078,0.3692 -1.439516,0.80449 -1.44021,0.8052 h -1.168065 -1.167362 l -0.772858,0.77285 -0.772848,0.77286 v 1.48031 1.48099 H 83.17865 81.822121 l 0.370597,0.96624 0.370606,0.96552 -0.462728,0.0824 -0.462728,0.0824 -1.315036,0.14557 -1.314342,0.14556 -1.582969,0.84318 -1.582969,0.84317 -0.784103,1.0218 -0.784103,1.02178 -0.0211,0.41139 -0.02042,0.41139 5.312208,-0.23136 5.312198,-0.23067 1.554137,-0.82418 1.554138,-0.82419 0.283409,0.84389 0.283399,0.84457 1.206745,-1.09212 1.206041,-1.09211 2.409963,0.3917 2.409269,0.391 1.307307,1.61462 1.307308,1.61461 0.47116,0.0122 0.470466,0.0122 0.394503,-1.57312 0.395213,-1.57243 1.3495,-0.1976 1.3502,-0.19832 0.56189,-2.17931 0.56259,-2.18001 0.92474,-0.92475 0.92475,-0.92475 v -2.24049 -2.24049 l 2.16383,-0.90435 2.16383,-0.90365 1.77848,-0.32278 1.77848,-0.32279 0.0824,-0.18916 0.0815,-0.18917 0.82419,-1.47047 0.82418,-1.47115 -0.42826,-3.22572 -0.42756,-3.22571 -1.68424,-0.91068 -1.68354,-0.90999 -2.89801,-2.59281 -2.89731,-2.592813 -0.44514,-0.0096 z"
       inkscape:label="#santaisabel" /><path
       id="saogabriel"
       style="fill:#e6e6e6;stroke-width:0.643897"
       d="m 76.809971,87.192091 -1.490848,1.400134 -1.490144,1.400134 h -0.560477 -0.56118 l -1.48311,1.393807 -1.483816,1.393098 -1.230653,-1.113216 -1.230652,-1.113924 -0.389591,0.630801 -0.390293,0.630801 0.808715,0.289027 0.809419,0.28832 -0.350209,0.384667 -0.349506,0.383973 -9.308657,0.18706 -9.308658,0.187047 -0.20253,2.833323 -0.203234,2.834017 0.846689,0.536562 0.846689,0.537278 2.33613,0.01 2.335429,0.01 0.763707,0.92052 0.764411,0.91983 0.246131,1.94513 0.24613,1.94444 -1.284098,0.40787 -1.284098,0.40718 -0.834031,-0.69199 -0.834735,-0.69267 -3.319949,0.98662 -3.31995,0.98593 v 1.85371 1.85442 l 0.391699,1.0211 0.391699,1.02179 2.184233,1.03585 2.18353,1.03656 v 0.79466 0.79464 l 2.519674,1.13642 2.519673,1.13573 0.712374,-0.44023 0.712371,-0.44021 2.235569,0.73838 2.236272,0.7377 0.602668,1.07593 0.601966,1.07664 1.940915,-0.73276 1.940915,-0.73277 0.359351,0.35936 0.359351,0.35935 v 4.40011 4.40011 l 1.126574,0.0534 1.127277,0.0534 1.571723,0.16948 1.572417,0.17018 2.82347,-2.15539 2.823469,-2.15471 h 1.23839 1.23839 v -0.96623 -0.96554 h 1.287611 1.288325 v -1.58719 -1.58718 l 1.44865,-0.79817 1.448651,-0.79887 1.126582,0.17229 1.127275,0.17299 v -0.68494 -0.68425 h 0.965533 0.965532 v -0.64345 -0.64417 h 0.92827 0.927557 l 0.39381,-0.63642 0.393107,-0.63642 -0.950067,0.36427 -0.950057,0.36428 -0.715899,-1.33754 -0.715879,-1.33756 -1.104071,-0.0457 -1.104072,-0.045 1.273542,-0.49719 1.273553,-0.49788 -1.440219,-0.77074 -1.44021,-0.77074 0.405056,-1.74472 0.405065,-1.74541 0.865673,-0.69831 0.866387,-0.69831 -0.750348,-0.75034 -0.750348,-0.75035 h 0.644157 0.01065 c -0.002,-0.0273 -0.0029,-0.0543 -0.0039,-0.0815 -2e-5,-9.8e-4 1.9e-5,-0.003 0,-0.004 -0.0049,-0.0485 -0.01045,-0.0972 -0.01544,-0.14558 -1.9e-5,-2.5e-4 -0.002,-0.0108 -7.03e-4,-0.0211 l -1.121658,0.0373 -3.143438,-2.82627 -3.143437,-2.826296 -1.293239,0.691983 -1.293239,0.691973 0.0935,-3.559752 0.0935,-3.560457 -1.401539,-1.305897 -1.40154,-1.305897 v -1.696892 z m 12.715806,17.603269 c 2.35e-4,9.7e-4 -6.8e-5,9.8e-4 0,9.8e-4 2.9e-5,2.5e-4 2.35e-4,9.8e-4 7.04e-4,0.003 -1.57e-4,-9.8e-4 1.56e-4,-0.003 0,-0.004 z"
       inkscape:label="#saogabriel" /><path
       style="fill:#e6e6e6;stroke-width:0.643897"
       d="m 128.11315,140.5217 1.45083,-0.95061 1.14946,-0.038 1.14948,-0.038 2.89753,-1.53997 2.89753,-1.54 1.60972,-0.74493 1.60975,-0.74493 1.24052,-0.65108 1.24052,-0.65108 0.85214,1.16538 0.85214,1.16538 0.0742,-0.60599 0.0742,-0.606 -0.13405,-1.28778 -0.13403,-1.28779 -1.0058,-1.12682 -1.00579,-1.12683 h -1.49341 -1.49341 l -0.92098,-1.77071 -0.92097,-1.77071 -2.62176,-1.93169 -2.62174,-1.93168 -0.0152,-0.80486 -0.0152,-0.80491 h 0.89604 0.89603 l 0.49665,-1.77071 0.49663,-1.77072 -0.16637,-0.96584 -0.16638,-0.96585 -1.25169,-2.75696 -1.25169,-2.75696 0.35784,-0.579 0.35783,-0.57901 -0.71608,-0.44257 -0.7161,-0.44257 0.41856,-2.79112 0.41855,-2.79114 -0.77762,-2.595478 -0.77762,-2.595477 -1.11922,-1.012882 -1.1192,-1.012868 0.72622,-1.924001 0.72624,-1.924 -0.95697,-0.605068 -0.95698,-0.605067 -1.44877,-0.0095 -1.44875,-0.0095 v -0.66998 -0.669978 l -2.60254,0.153556 -2.60254,0.153569 -0.69578,0.838369 -0.6958,0.838355 h -1.85282 -1.85286 v 1.788313 1.788298 l -2.03471,1.785413 -2.03468,1.785428 -0.38012,-0.615002 -0.38008,-0.615015 -1.9315,1.545253 -1.93151,1.545268 1.93169,1.689994 1.93169,1.69001 2.36716,1.58693 2.36717,1.58695 0.48917,2.6824 0.48915,2.68239 -0.16253,0.96583 -0.16253,0.96586 -0.76167,1.77826 -0.76166,1.77827 -0.96628,0.24555 -0.96629,0.24554 -3.1041,0.80919 -3.1041,0.8092 0.37055,1.47638 0.37054,1.4764 -0.75025,1.64664 -0.75026,1.64663 h -0.53292 -0.53294 l -0.41185,2.57559 -0.41186,2.57558 h -1.18284 -1.18283 l -0.68921,1.2878 -0.689209,1.28777 0.344609,0.0806 0.3446,0.0804 0.73997,0.0806 0.73998,0.0804 0.43674,1.24506 0.43674,1.24505 0.47102,-0.76214 0.47103,-0.76212 h 0.60589 0.6059 v 1.33119 1.33117 l 1.28779,-0.40872 1.2878,-0.40875 v 1.00925 1.00923 l 0.48291,0.0523 0.48292,0.0523 1.7557,0.12928 1.75568,0.12927 0.35808,-0.93314 0.35808,-0.93315 0.70125,0.70126 0.70125,0.70125 0.88739,-0.34052 0.88737,-0.34052 v 1.71808 1.71808 l 2.8214,-0.4231 2.82141,-0.42309 0.33887,0.54462 0.33887,0.54461 2.12715,0.14575 2.12716,0.14575 1.45082,-0.95062 z"
       id="barcelos"
       inkscape:label="#barcelos" /><path
       id="path4641"
       style="fill:#e6e6e6;stroke-width:0.643897"
       d="m 169.64972,126.74248 -0.36357,0.94793 -0.36428,0.94796 -0.006,0.47609 -0.006,0.47609 h 1.436 1.4367 v 2.89802 2.8973 l 0.48453,0.74683 0.48522,0.74682 -0.36216,0.94445 -0.36287,0.94514 4.38465,0.4578 4.38534,0.45851 1.6969,1.83332 1.69688,1.83402 1.45639,-0.38115 1.4571,-0.38115 -1.06046,-0.77566 h -7.2e-4 l -1.06046,-0.77567 v -0.71166 -0.71097 l -1.28763,-0.68916 -1.28831,-0.68917 v -0.89099 -0.89029 l -2.25314,-1.3931 -2.25386,-1.3931 v -0.8699 -0.86989 l -1.2841,-0.40717 -1.28409,-0.40788 -0.82561,-0.76229 -0.82628,-0.76301 -2.01617,-1.42404 z" /><path
       id="path5280"
       style="fill:#e6e6e6;stroke-width:0.643897"
       d="m 175.96965,139.6587 -1.47608,0.15752 -1.47609,0.15753 -0.77706,0.4803 -0.13713,0.0851 c -0.007,0.0896 -0.049,0.17527 -0.0844,0.26791 -0.0122,0.0343 -0.23822,0.42007 -0.26653,0.40156 -0.0274,-0.0178 -0.0532,-0.0343 -0.0781,-0.0499 -0.0277,0.0185 -0.055,0.0341 -0.0816,0.0471 l 0.57102,0.68845 0.74401,0.89662 1.69198,0.009 1.69196,0.01 0.96553,0.62727 0.96626,0.62728 0.96552,-0.40858 0.96625,-0.40787 1.11321,-0.045 1.6547,0.7644 0.0281,-0.002 -0.0274,0.0274 0.42405,0.68636 0.42475,0.68705 1.0886,-0.0204 1.0886,-0.0204 -1.2405,-0.93882 -1.2405,-0.93881 -0.17721,0.17722 -1.79605,-1.77707 -0.88748,-1.3108 -2.31924,0.0731 -2.31926,0.0739 v -0.51266 z" /><path
       style="fill:#e6e6e6;stroke-width:0.643897"
       d="m 163.09772,113.92822 -1.12939,0.21658 -1.13008,0.2159 -0.47469,0.0492 -0.47398,0.0492 -0.96975,2.32136 -0.96975,2.32067 0.36145,1.44091 0.36146,1.44021 -2.1111,1.0225 -2.11038,1.02179 -0.38608,-0.23839 -0.38606,-0.23839 -0.68778,2.57453 -0.68705,2.57522 1.53023,1.00281 1.53023,1.0021 v 2.18002 2.1793 l 1.12658,0.0985 1.12728,0.0977 0.64345,0.12451 0.64417,0.12452 2.8973,1.36216 2.898,1.36216 0.20816,-0.94094 0.20816,-0.94092 h 0.48804 0.48734 l 0.83896,1.56751 0.83895,1.56751 1.82417,0.75526 1.52321,0.63079 c 0.0109,-0.0284 0.0248,-0.0573 0.0436,-0.0857 -0.0317,-0.0404 -0.0669,-0.0887 -0.10765,-0.14627 -0.0752,-0.10629 0.24385,-0.45721 0.3059,-0.53165 0.0155,-0.0187 0.0313,-0.0359 0.0471,-0.052 l -0.0499,-0.80732 -0.27215,-1.93177 -0.27287,-1.93178 -0.0597,-0.96553 -0.0591,-0.96624 0.45921,-1.44865 0.45921,-1.44866 h -1.89944 -1.89942 l -0.40647,-0.40646 -0.40647,-0.40647 0.94304,-1.34669 0.94304,-1.34668 v -0.50071 -0.50069 h -1.98101 -1.98099 l -1.88255,-1.88184 -1.88184,-1.88255 v -1.33684 -1.33755 h 0.58085 0.58088 l 0.66807,-1.9177 0.66877,-1.91701 -0.61604,-0.38045 -0.61602,-0.38115 0.33545,-0.54289 z"
       id="presidentefiguereido" /><path
       id="urucara"
       style="fill:#e6e6e6;stroke-width:0.643897"
       d="m 162.1139,110.5956 -0.85724,1.3727 -0.85653,1.37201 1.61109,-0.40437 1.61182,-0.40504 0.44373,2.62444 0.44304,2.62376 -1.35302,1.44021 -1.35301,1.44021 v 0.49859 0.49929 l 1.76863,1.87412 1.76862,1.87411 h 2.00842 2.00772 l 1.63712,1.2876 1.63713,1.28763 h 0.72362 0.72362 l 0.3706,0.96623 0.37061,0.96554 h 0.77566 0.77496 l 1.24823,1.20111 1.24824,1.20182 0.94725,1.37412 0.94725,1.37411 h 0.8073 0.80661 l 0.9993,1.93177 0.99857,1.93178 h 0.62729 0.62797 v 0.70182 0.70113 l 1.44867,1.18213 1.44865,1.18282 -1.12657,0.43812 -1.12729,0.43882 v 0.57523 0.57454 h 0.6294 0.62869 l 1.05484,-1.60969 1.05485,-1.6097 1.3748,-0.0281 1.37483,-0.0288 -2.54077,-1.33893 -2.54077,-1.33967 -0.98101,-0.981 -0.981,-0.981 -0.2159,-1.6104 -0.21518,-1.6111 -1.80661,-1.68705 -1.80659,-1.68775 -0.4557,-1.43601 -0.45568,-1.43529 h -0.53657 -0.53726 l -1.46483,-2.41488 -1.46555,-2.4149 -1.17368,-2.22853 -1.17439,-2.22854 v -2.11322 -2.1125 l -1.40366,-1.61461 -1.40365,-1.61462 h -4.55832 z" /><path
       style="fill:#e6e6e6;stroke-width:0.643897"
       d="m 62.09496,143.67066 1.145084,-1.03629 0.989823,0.37983 0.989828,0.37984 v -0.62368 -0.6237 h 1.862798 1.862797 l 0.370633,0.96585 0.370627,0.96584 h 1.307998 1.308001 v -0.53658 -0.53659 l 2.39522,-2.3952 2.39522,-2.39523 1.575807,0.39549 1.575808,0.39552 2.78987,-0.82376 2.78989,-0.82376 v -0.75638 -0.75638 l 0.94522,-0.36271 0.945221,-0.36272 0.415226,0.67187 0.415246,0.67187 1.215137,-0.31777 1.215108,-0.31775 v 0.58361 0.58361 h 0.643894 0.643903 v -3.54143 -3.54142 h -0.500616 -0.500646 l -1.38878,0.97274 -1.388799,0.97277 -0.403287,-0.65255 -0.403307,-0.65255 -1.300654,0.6961 -1.300684,0.6961 -5.550293,0.2615 -5.550313,0.2615 -0.424986,-0.68765 -0.424987,-0.68765 -2.82632,-0.15757 -2.826316,-0.15757 -0.187876,-4.55303 -0.18787,-4.55303 -2.548687,0.34186 -2.548682,0.34185 v -0.71216 -0.71213 l -1.833029,-0.9479 -1.833029,-0.94789 -1.390919,0.36372 -1.390917,0.36374 -1.952865,-0.8089 -1.95286,-0.8089 -0.779229,-1.08351 -0.779225,-1.0835 -2.09266,-1.03204 -2.092662,-1.03204 v 0.31493 0.31492 l 0.619287,1.15716 0.619293,1.15714 1.95629,0.81033 1.956298,0.81032 0.07427,1.04871 0.07427,1.04869 0.125891,0.6439 0.125891,0.64389 1.052172,2.30906 1.052163,2.30907 -0.300068,2.52014 -0.300068,2.52017 -0.665923,3.74255 -0.665931,3.74254 -0.339744,0.88536 -0.339746,0.88537 2.549576,1.30071 2.549583,1.30069 0.411282,1.07177 0.411275,1.07177 2.040494,-0.40809 2.040498,-0.40809 z"
       id="japura"
       inkscape:label="#japura" /><path
       style="fill:#e6e6e6;stroke-width:0.643897"
       d="m 169.2194,145.52712 1.55851,-1.77072 0.0202,-0.57154 0.0203,-0.57154 -2.26279,-1.93283 -2.2628,-1.93282 -2.24448,-0.20142 -2.24448,-0.20139 v 1.67361 1.67362 l 2.29675,2.80287 2.29675,2.80286 h 0.63167 0.63167 z"
       id="riopretodaeva" /><path
       style="fill:#e6e6e6;stroke-width:0.643897"
       d="m 73.999525,146.52028 3.344417,-0.77755 0.280565,-2.60291 0.280557,-2.60291 -0.445328,-0.5094 -0.445328,-0.5094 -2.033982,2.0804 -2.033983,2.08042 v 0.45277 0.45277 l -0.84459,0.3241 -0.844589,0.32409 -2.529559,-1.16977 -2.529558,-1.16977 -0.424238,0.68644 -0.424244,0.68644 -0.98375,-0.3775 -0.983749,-0.37749 -0.763493,0.91994 -0.763494,0.91996 0.877391,0.24169 0.877386,0.24169 1.931687,0.66327 1.931688,0.66326 1.590886,0.0685 1.590891,0.0685 z"
       id="tocantins"
       inkscape:label="#tocantins" /><path
       style="fill:#e6e6e6;stroke-width:0.643897"
       d="m 182.97137,147.44965 0.60795,-1.13596 -0.86195,-1.17879 -0.86194,-1.17878 -2.00337,0.44002 -2.00336,0.44001 -0.90403,-0.75028 -0.90403,-0.75027 -1.34718,0.2104 -1.3472,0.2104 1.93523,2.11005 1.93525,2.11006 1.5599,-0.39151 1.55991,-0.39151 0.43018,0.69606 0.4302,0.69607 h 0.58325 0.58324 z"
       id="silves" /><path
       style="fill:#e6e6e6;stroke-width:0.643897"
       d="m 132.96063,146.81491 0.84603,-1.77072 1.60371,-0.22266 1.6037,-0.22268 0.73919,-0.60652 0.73918,-0.60653 1.34412,-0.25883 1.34412,-0.25886 0.87729,1.2525 0.87729,1.2525 1.99771,-0.39954 1.99769,-0.39954 1.80262,0.5959 1.8026,0.59589 1.15359,-0.25221 1.15359,-0.25221 -0.35467,-1.11744 -0.35466,-1.11745 1.2779,-3.82038 1.27791,-3.82038 0.0157,-2.11287 0.0158,-2.11287 -1.1268,-0.40641 -1.12683,-0.40641 -1.01792,-1.02214 -1.01793,-1.02215 1.1765,-1.93169 1.17648,-1.93169 0.003,-1.01456 0.003,-1.01459 -1.56065,-1.46616 -1.56068,-1.46617 -2.30299,0.76006 -2.30301,0.76006 -0.27924,1.39874 -0.27924,1.39873 -0.37354,2.21905 -0.37355,2.21903 1.41847,3.42233 1.41847,3.42231 -0.73809,0.73812 -0.73812,0.73811 -0.95197,-0.79007 -0.95197,-0.79007 -1.32895,0.71124 -1.32895,0.71122 v -0.38844 -0.38845 l -1.77072,1.19185 -1.7707,1.19182 -2.43645,1.10566 -2.43646,1.10563 h -0.96666 -0.96666 l -1.57452,1.03168 -1.57453,1.03168 -3.07106,-0.37954 -3.07106,-0.37954 -1.50074,-0.0109 -1.50073,-0.0109 -1.07484,0.67756 -1.07485,0.67755 1.37402,-0.37237 1.37403,-0.37235 0.40896,1.6294 0.40895,1.62941 h 0.59363 0.59362 l 0.39795,-0.6439 0.39796,-0.64389 h 1.57173 1.57174 v 0.56341 0.5634 l 1.93168,0.38634 1.93169,0.38634 v 0.93474 0.93472 l 1.12683,0.29446 1.12681,0.29448 0.76974,0.0747 0.76973,0.0747 0.84605,-1.77072 z"
       id="novoairao"
       inkscape:label="#novoairao" /><path
       style="fill:#e6e6e6;stroke-width:0.643897"
       d="m 155.09342,147.86207 -0.57273,-0.24229 -0.61125,-0.79135 -0.61125,-0.79132 -1.38116,0.74153 -1.38115,0.74155 1.93169,0.82562 1.68415,0.93814 1.44356,0.29902 0.97098,-0.3535 -1.2028,-1.02991 z"
       id="iranduba"
       sodipodi:nodetypes="cccccccccccc" /><path
       style="fill:#e6e6e6;stroke-width:0.643897"
       d="m 90.379345,146.81491 1.440552,-2.41462 1.599226,-1.55801 1.599216,-1.55802 0.856011,1.17065 0.855991,1.17063 0.978879,-0.8124 0.978888,-0.81239 -0.359351,-0.58144 -0.359362,-0.58144 -0.531919,0.32874 -0.531939,0.32875 -0.386248,-1.00654 -0.386248,-1.00653 -1.243177,0.39457 -1.243168,0.39456 -0.530717,-0.90007 -0.530708,-0.90007 -1.462085,-0.76767 -1.462065,-0.76767 -0.586094,0.36223 -0.586094,0.36223 -0.40444,-0.65439 -0.40444,-0.65441 h -0.605898 -0.605898 v 0.80907 0.80906 l -2.565443,0.80067 -2.565443,0.80068 h -1.159956 -1.159956 l -0.01065,1.44877 -0.01065,1.44875 0.999405,0.7844 0.999415,0.78439 2.143817,0.0205 2.143827,0.0205 -0.424283,-1.93169 -0.424263,-1.93169 h 1.825305 1.825285 l 0.705367,2.25363 0.705376,2.25363 h -1.16905 -1.169062 l -0.66655,1.24547 -0.666551,1.24546 v 1.00818 1.00817 h 1.557216 1.557234 l 1.440532,-2.4146 z"
       id="fonteboa"
       inkscape:label="#fonteboa" /><path
       style="fill:#e6e6e6;stroke-width:0.643897"
       d="m 190.19107,142.10663 -1.02742,1.56822 -1.02741,1.5689 -1.73066,0.43389 -1.73065,0.4346 -0.47889,0.75386 -0.47962,0.75388 -0.01,1.23907 -0.01,1.23909 1.49015,-1.40012 1.49015,-1.40013 h 0.90365 0.90435 l 1.46905,-1.71025 1.46904,-1.70956 v -0.51055 -0.50984 l 1.52953,0.53305 c 0.01,-0.0225 0.0232,-0.0438 0.0337,-0.0597 0.0416,-0.0532 0.0917,-0.0958 0.14908,-0.13145 0.0583,-0.0392 0.12016,-0.0731 0.18566,-0.0992 0.0717,-0.0291 0.1433,-0.0589 0.21448,-0.0893 0.0732,-0.0318 0.14769,-0.0617 0.21518,-0.10478 0.054,-0.035 0.10751,-0.0706 0.1505,-0.11962 0.0252,-0.0301 0.025,-0.0381 0.0183,-0.0787 -0.006,-0.0301 -0.0108,-0.062 -0.0316,-0.0859 -0.0415,-0.0446 -0.0893,-0.0817 -0.13713,-0.11962 -0.0266,-0.0205 -0.0528,-0.0426 -0.0801,-0.0626 l 0.006,0.0288 -1.7426,-0.18144 z"
       id="path5201" /><path
       style="fill:#e6e6e6;stroke-width:0.643897"
       d="m 203.00955,139.53984 -1.82488,0.94375 -1.82489,0.94373 -2.98872,-0.24332 -2.98873,-0.24402 0.14697,0.76441 0.0668,0.3467 c 0.0973,0.0454 0.18691,0.10696 0.27426,0.16947 0.0713,0.0539 0.13853,0.11242 0.20324,0.1737 0.003,9.7e-4 0.007,9.8e-4 0.01,0.003 0.0564,0.0197 0.10383,0.0547 0.14277,0.0992 0.0305,0.0343 0.0571,0.0716 0.0787,0.11186 0.0184,0.035 0.0322,0.073 0.0444,0.11036 0.0257,0.0781 -0.004,0.12833 -0.0444,0.13782 -0.0108,0.0178 -0.0211,0.0357 -0.0337,0.052 -0.037,0.0478 -0.0939,0.097 -0.13995,0.13499 -0.0806,0.0665 -0.1665,0.12425 -0.25386,0.18144 -0.12629,0.079 -0.25542,0.15407 -0.38537,0.22714 -0.0434,0.0249 -0.0862,0.0512 -0.12521,0.0824 l 0.01,0.004 1.95147,0.68071 1.26791,-0.33192 1.26794,-0.33123 v 0.58369 0.58298 l 1.44935,0.0513 1.44866,0.0506 -0.8052,0.32488 -0.8045,0.3242 v 0.91279 0.91209 h -1.18071 -1.18004 l 0.0837,1.13782 0.0837,1.13853 0.49087,0.79325 0.48944,0.79324 h 0.47187 0.47186 l 1.78551,-3.64133 7e-4,-6.9e-4 1.78551,-3.64134 0.27847,-2.16876 z"
       id="parintins" /><path
       id="careiro"
       style="fill:#e6e6e6;stroke-width:0.643897"
       d="m 157.89522,149.22966 0.7159,1.33753 0.71588,1.33756 0.0598,-0.0232 -0.44585,2.27002 -0.39381,1.57102 -0.57876,-0.35794 -0.57876,-0.35724 -0.4121,1.29676 -0.41138,1.29746 h -0.54992 c -0.0109,0.0136 -0.0229,0.0263 -0.0365,0.0394 -0.092,0.0883 -0.18293,0.17744 -0.27356,0.26722 v 7e-4 c -0.004,0.004 -0.009,0.008 -0.0112,0.0119 -0.098,0.1207 -0.19735,0.2394 -0.3073,0.3495 -0.008,0.008 -0.0153,0.0208 -0.0232,0.033 v 0.51547 1.21869 l -0.82138,0.31576 c -0.004,0.0122 -0.01,0.0266 -0.0148,0.0401 -0.0902,0.21493 -0.20866,0.41694 -0.3291,0.61604 -0.0694,0.10791 -0.13833,0.21791 -0.21379,0.32277 l 1.05696,-0.22363 1.28832,-0.27215 2.0921,-0.008 2.09281,-0.009 v -0.89099 -0.8903 l 1.28481,-0.33614 1.28409,-0.33614 0.22786,-0.86568 0.22785,-0.86637 0.67227,-2.05835 0.673,-2.05836 -1.05836,-0.21237 -1.2166,-1.18495 0.15964,-0.005 -1.60969,-0.92052 -1.6097,-0.91983 -0.8277,-0.0233 z" /><path
       style="fill:#e6e6e6;stroke-width:0.643897"
       d="m 148.01296,152.449 h 0.91319 v -0.64391 -0.64389 h -1.01765 -1.01764 l -1.00733,-2.56444 -1.00735,-2.56443 -1.51644,0.38061 -1.51645,0.3806 v -1.05586 -1.05585 l -1.00928,-0.3873 -1.00928,-0.38729 -1.40532,0.69625 -1.40534,0.69626 -1.28288,0.20205 -1.28288,0.20204 -0.81982,1.71049 -0.81983,1.71049 0.75731,1.66208 0.75729,1.6621 h 0.39727 0.39728 l 1.5517,-1.08686 1.55169,-1.08686 0.23219,0.69656 0.23217,0.69654 1.14751,-0.30007 1.14751,-0.30008 2.20207,0.95949 2.20206,0.9595 0.85755,-0.26912 0.85751,-0.2691 z"
       id="caapiranga" /><path
       style="fill:#e6e6e6;stroke-width:0.643897"
       d="m 168.88691,152.60573 1.60974,-1.12259 0.11499,-0.66688 0.115,-0.66689 -1.08083,-0.0751 -1.08083,-0.0752 -2.41462,-0.469 -2.4146,-0.46898 v 1.37203 1.37202 h 1.2878 1.28778 v 0.96586 0.96584 l 0.48293,-0.004 0.48292,-0.004 1.60973,-1.12259 z"
       id="path4613" /><path
       style="fill:#e6e6e6;stroke-width:0.643897"
       d="m 197.68441,153.24978 0.78805,-1.00088 -1.13733,-1.02677 -1.13731,-1.02676 -0.12643,-1.77072 -0.12642,-1.77072 h 1.28059 1.28057 v -0.64389 -0.64389 l -0.48292,-0.0831 -0.48292,-0.083 -1.60974,-0.14835 -1.60973,-0.14833 -1.22893,-0.5206 -1.22892,-0.5206 0.38917,1.94586 0.38917,1.94585 -0.5855,0.5855 -0.58549,0.5855 0.78656,2.24497 0.78657,2.24495 0.53189,0.83106 0.5319,0.83106 1.39458,-0.41315 1.39457,-0.41316 z"
       id="barreirinha" /><path
       style="fill:#e6e6e6;stroke-width:0.643897"
       d="m 191.52754,144.78838 -1.75982,2.14172 -1.01194,1.01195 h -1.25597 l -1.04841,0.0159 -1.19159,1.42026 -0.41119,1.62711 -0.22221,-0.0584 -0.004,0.0486 c -0.008,0.0953 -0.0122,0.1907 -0.006,0.28622 0.004,0.0925 0.008,0.18514 0.0122,0.27779 l 0.92122,0.35371 1.28381,-0.68935 0.47156,-1.62819 1.2186,-0.36598 0.91557,0.81153 0.69626,1.72965 1.42823,1.39621 0.27004,-0.27005 0.57168,-0.52394 -0.614,-1.55023 -0.74131,-1.70869 0.74787,-1.69346 z"
       id="uruourituba"
       sodipodi:nodetypes="cccccccccccccccccccccccc" /><path
       style="fill:#e6e6e6;stroke-width:0.643897"
       d="m 171.91482,142.51663 -0.47188,1.2637 -0.47185,1.26371 -1.3481,1.21307 -1.3488,1.21306 0.38748,0.62658 0.38749,0.62659 -0.34528,-0.0985 c -0.004,0.0225 -0.007,0.0445 -0.0109,0.0668 -0.003,0.0187 -0.008,0.0353 -0.0136,0.0513 v 0.14839 c 0,0.0146 -8.2e-4,0.0283 -0.003,0.0415 l 2.981,0.21379 0.38536,0.57594 0.38538,0.57595 2.09281,0.91068 2.09281,0.90998 v 0.44867 0.44865 l -0.76933,0.47608 -0.76933,0.4754 2.21798,0.80097 2.21799,0.80169 0.48311,0.0486 0.48313,0.0499 v -1.28762 -1.28761 h 1.21869 1.21869 l 0.3664,-0.95499 0.36638,-0.95497 0.24823,0.095 c 1.3e-4,-0.0143 -3.2e-4,-0.029 0.004,-0.0436 0.0151,-0.10302 0.0456,-0.20245 0.10057,-0.29185 0.0277,-0.0469 0.0574,-0.0928 0.0908,-0.13568 l -0.46202,-0.12097 -1.22011,-0.31927 v -0.63711 -0.63784 l -0.99014,0.37973 -0.99015,0.38046 -0.32982,-0.86005 -0.32981,-0.85935 -1.4163,0.25316 -1.41631,0.25387 -1.67017,-1.47608 -1.66947,-1.47538 -0.84106,-1.58577 z"
       id="itacoatiara" /><path
       style="fill:#e6e6e6;stroke-width:0.643897"
       d="m 158.59142,136.38235 -1.88394,0.37693 -1.88397,0.37693 -1.01476,3.10195 -1.01476,3.10264 0.41561,1.1737 0.41561,1.17369 1.30448,1.44866 1.3038,1.44865 h 1.45569 1.45568 l 1.62869,0.61955 1.62867,0.61883 0.39663,-0.64133 0.39662,-0.64135 4.23064,0.30239 0.52671,0.038 c -0.003,-0.0122 -0.007,-0.0236 -0.0109,-0.0359 -0.0418,-0.0332 -0.0763,-0.0934 -0.0886,-0.18216 -0.0138,-0.0986 -0.0302,-0.19702 -0.0499,-0.29464 l -0.2848,-0.0808 -1.52953,-0.436 -2.44584,-2.69126 -2.44584,-2.69196 0.20536,-2.37833 0.20604,-2.37902 -1.4585,-0.66457 z"
       id="manaus" /><path
       style="fill:#e6e6e6;stroke-width:0.643897"
       d="m 145.65859,154.76057 0.75351,-0.90794 -2.12343,-0.4542 -2.12343,-0.45424 -0.79667,-0.64158 -0.79667,-0.64157 -0.97405,0.37378 -0.97403,0.37378 v 0.97377 0.9738 l 1.44876,0.30914 1.44875,0.30914 1.28781,0.27233 1.28779,0.27233 0.40407,0.0747 0.40409,0.0747 z"
       id="ariama" /><path
       style="fill:#e6e6e6;stroke-width:0.643897"
       d="m 114.57144,154.72301 -1.19408,-0.90455 0.29566,-0.84567 0.29567,-0.84569 -1.75217,-2.25363 -1.75217,-2.25363 -0.45131,-1.44878 -0.45131,-1.44877 1.1702,-0.01 1.17023,-0.01 -0.7181,-0.47305 -0.71809,-0.47307 -0.43526,-1.39566 -0.43528,-1.39568 -1.30799,-1.66283 -1.30798,-1.66283 h -1.24105 -1.24106 v -0.90556 -0.90557 l -1.28779,0.33677 -1.2878,0.33676 v -1.04094 -1.04095 l -1.12681,-0.0981 -1.126821,-0.0981 -0.700208,-0.0732 -0.700217,-0.0732 -1.070502,-1.07051 -1.070502,-1.07049 v -0.79722 -0.79719 l -0.406619,0.4066 -0.406609,0.40661 -1.20313,-0.64389 -1.203129,-0.6439 v 3.51142 3.51143 l 0.39083,1.01849 0.39085,1.01851 h 1.862792 1.862802 v 0.50776 0.50774 l 2.609553,-0.0249 2.60954,-0.0249 1.09285,1.93169 1.09286,1.93169 0.48293,0.21462 0.48292,0.21464 v 0.91453 0.91451 l 1.13433,2.09033 1.13435,2.09031 1.73902,1.71727 1.739,1.71728 1.45524,1.01929 1.45524,1.01929 0.6616,-0.0205 0.6616,-0.0205 -1.19408,-0.90455 z"
       id="maraa"
       inkscape:label="#maraa" /><path
       style="fill:#e6e6e6;stroke-width:0.643897"
       d="m 51.436784,154.05879 1.736941,-1.60973 h 0.871815 0.871822 v -0.51455 -0.51455 l 2.138378,-0.77325 2.138379,-0.77324 h 2.315229 2.315239 l 0.245503,-0.73652 0.245513,-0.73651 3.027629,0.45401 3.02763,0.45403 0.0098,1.08737 0.0098,1.08735 0.624195,-0.96583 0.624168,-0.96586 0.0098,-0.80486 0.01,-0.80487 h -2.046847 -2.046945 l -2.299352,-0.72294 -2.299351,-0.72293 -0.965845,-0.44721 -0.965844,-0.4472 -2.05326,0.43688 -2.053268,0.43684 -0.683289,-0.68328 -0.683297,-0.6833 v -0.87507 -0.87506 l -0.648834,0.401 -0.648835,0.40101 -1.006898,-1.00691 -1.006899,-1.0069 h -0.585636 -0.585636 l -0.290351,1.44878 -0.290359,1.44876 -0.697095,3.86337 -0.697088,3.86338 -0.387708,1.44877 -0.38771,1.44875 h 0.685821 0.685819 z"
       id="santoantonio"
       inkscape:label="#santoantonio" /><path
       style="fill:#e6e6e6;stroke-width:0.643897"
       d="m 68.439175,154.26808 v -1.81902 l 1.448765,-0.0508 1.448764,-0.0508 -0.804867,-0.32478 -0.804871,-0.32477 v -0.84174 -0.84174 l -2.414608,-0.29206 -2.41461,-0.29207 -0.214629,0.54358 -0.214637,0.54355 h -0.912181 -0.912189 v 2.12487 2.12485 l 0.615598,0.6117 0.615596,0.6117 2.281934,0.0484 2.281935,0.0484 v -1.81902 z"
       id="amatura"
       inkscape:label="#amatura" /><path
       style="fill:#e6e6e6;stroke-width:0.643897"
       d="m 152.62854,155.99817 1.44877,-0.41642 v -1.25388 -1.25385 l 1.92937,-1.17333 1.92938,-1.17333 -0.42696,-0.42694 -0.42695,-0.42695 h -1.40634 -1.40633 l -1.96327,-0.6844 -1.96326,-0.68439 -0.3185,-1.21798 -0.31851,-1.21797 -1.70768,-0.42859 -1.70766,-0.4286 -0.35905,0.35903 -0.35903,0.35903 0.59165,1.81096 0.59165,1.81095 1.40711,0.63562 1.4071,0.63561 v 0.81315 0.81317 0.48291 0.48292 h -0.52891 -0.52892 l -1.12681,1.12683 -1.12682,1.1268 h 1.33379 1.33379 v 0.6873 0.68729 l 1.12681,-0.31426 1.12682,-0.31425 z"
       id="mabacapuru" /><path
       style="fill:#e6e6e6;stroke-width:0.643897"
       d="m 97.89741,154.62379 1.448768,-0.38267 v -0.57408 -0.57409 h 1.220502 1.22051 l 1.19858,-2.42256 1.19859,-2.42257 1.28332,0.23142 1.2833,0.23144 -0.80487,-0.83519 -0.80486,-0.83517 v -1.15901 -1.15902 h -0.50274 -0.50272 l -0.68863,-1.82435 -0.68862,-1.82438 h -1.04763 -1.04761 l 0.37709,1.50243 0.37708,1.50241 h -0.64215 -0.64216 l 0.0894,1.08222 0.0894,1.08221 -1.604576,0.39438 -1.60459,0.39435 -0.649052,1.26907 -0.649032,1.26907 -1.448622,2.3203 -1.448611,2.32029 0.114719,1.85592 0.11472,1.85596 0.277605,0.53555 0.277616,0.53555 1.378238,-1.99341 1.378238,-1.99342 z"
       id="uarini" /><path
       style="fill:#e6e6e6;stroke-width:0.643897"
       d="m 139.88894,158.93034 0.66655,-1.24547 v -0.96477 -0.96479 l -1.28779,-0.40873 -1.28777,-0.40873 v -0.88446 -0.88444 l -0.71588,-0.44245 -0.7159,-0.44243 -0.4624,0.74818 -0.46242,0.7482 -1.01722,-0.39033 -1.01724,-0.39037 -0.3863,-1.53916 -0.38631,-1.53918 -2.56934,-0.76978 -2.56933,-0.7698 v -0.86392 -0.86393 h -1.57774 -1.57775 l -0.62171,-1.11094 -0.62171,-1.11093 -2.26694,1.08103 -2.26696,1.08103 -0.20184,-1.41228 -0.20184,-1.41227 -1.1092,-0.21139 -1.1092,-0.21136 0.90353,3.00223 0.90354,3.00224 1.11034,1.2269 1.11033,1.2269 h 0.7872 0.78721 l 0.7422,0.89432 0.74221,0.89431 2.78598,0.70151 2.78599,0.70153 2.50668,2.53609 2.5067,2.53607 2.71391,0.0533 2.71387,0.0534 z"
       id="codajas" /><path
       style="fill:#e6e6e6;stroke-width:0.643897"
       d="m 155.45853,157.59951 c 6.2e-4,3.2e-4 9.7e-4,3.5e-4 0.003,7e-4 2e-4,-2.7e-4 5e-4,-4.4e-4 7e-4,-7e-4 z"
       id="path5315" /><path
       style="fill:#e6e6e6;stroke-width:0.643897"
       d="m 158.46414,151.80559 -0.74472,0.01 -0.74472,0.01 -0.92053,0.58299 -0.92053,0.58227 -0.154,1.04922 -0.15403,1.04921 -0.77494,0.93391 -0.77496,0.93387 h -1.06611 -1.06539 l -1.10899,1.29536 -1.10899,1.29535 v 0.6744 0.67439 l 0.53797,-0.33263 0.53797,-0.33263 1.87692,0.57595 1.39731,0.42897 c 9.8e-4,-0.003 0.004,-0.007 0.006,-0.01 0.0645,-0.11322 0.13295,-0.22415 0.19971,-0.33614 1.8e-4,-5.9e-4 5.1e-4,-9.8e-4 7e-4,-0.003 0.004,-0.0122 0.008,-0.0271 0.0136,-0.0436 0.0212,-0.0382 0.0439,-0.0761 0.0668,-0.11323 l -0.0675,0.026 1.26581,-2.06046 0.21026,-0.34318 c 9.7e-4,-0.007 0.003,-0.0136 0.01,-0.0393 0.0166,-0.0707 0.0339,-0.14177 0.0626,-0.20886 0.0257,-0.0575 0.0543,-0.11335 0.0935,-0.16313 0.0225,-0.0281 0.0468,-0.0543 0.0717,-0.0801 2.8e-4,-4.4e-4 4.4e-4,-9.5e-4 7.2e-4,-9.7e-4 0.0122,-0.0202 0.0243,-0.0404 0.0366,-0.0604 0.003,-0.004 0.007,-0.01 0.01,-0.0141 -0.0464,-0.0826 -0.0145,-0.0876 0.0443,-0.0647 0.0221,-0.0301 0.0453,-0.0593 0.0697,-0.0879 0.0214,-0.0252 0.0446,-0.0368 0.064,-0.038 9.6e-4,-5e-5 9.7e-4,2e-5 0.003,0 l 0.59071,-0.96133 0.38818,-1.12656 0.38819,-1.12658 h 0.49366 0.49367 l 0.33684,-1.2876 z"
       id="path4593" /><path
       style="fill:#e6e6e6;stroke-width:0.643897"
       d="m 98.637636,159.76516 3.273694,-1.69847 0.63735,-0.76797 0.63737,-0.76798 0.17273,-1.55793 0.17272,-1.55792 1.7793,-1.36281 1.77929,-1.36279 -0.98998,-0.82161 -0.98999,-0.82162 -0.4023,0.4023 -0.4023,0.40231 -0.70895,1.41279 -0.70895,1.41281 -3.065193,1.68433 -3.065199,1.68436 -0.859068,1.26055 -0.859059,1.26054 -0.361765,1.44878 -0.361764,1.44877 h 0.524191 0.524191 z"
       id="alvaraes" /><path
       style="fill:#e6e6e6;stroke-width:0.643897"
       d="m 93.15796,161.7389 0.388535,-1.01249 -0.641598,-1.19881 -0.641578,-1.19883 v -2.35988 -2.35989 l 2.345158,-3.79944 2.345158,-3.79947 h 1.196271 1.196272 v -1.23414 -1.23412 l 0.804862,-0.28745 0.80489,-0.28747 -0.47898,-0.51346 -0.478984,-0.51347 -1.130764,1.02167 -1.130763,1.02166 -2.497834,0.20852 -2.497825,0.20852 -1.365547,2.71863 -1.365546,2.71864 -3.628354,0.0178 -3.628343,0.018 -1.115669,1.70272 -1.115649,1.70272 1.045852,0.58529 1.045872,0.58529 -0.648154,1.21109 -0.648153,1.21109 v 1.27646 1.27646 l -0.751325,0.25045 -0.751315,0.25043 1.516631,1.41295 1.51662,1.41297 h 4.960868 4.960858 l 0.388534,-1.01249 z"
       id="jurua" /><path
       style="fill:#e6e6e6;stroke-width:0.643897"
       d="m 162.03691,162.42943 0.37064,-0.96583 h 1.88208 1.88209 l 0.40401,-1.60975 0.40402,-1.60974 h 2.25732 2.2573 l 0.56088,-1.47523 0.56089,-1.47522 1.03291,-0.85724 1.03292,-0.85726 -0.01,-0.40407 -0.01,-0.40409 -0.57272,-0.90464 -0.57273,-0.90465 -2.47592,1.46666 -2.47591,1.46666 -1.93169,0.0999 -1.93169,0.0999 -0.32194,2.23565 -0.32195,2.23566 -1.40914,0.61856 -1.40913,0.61854 -0.31824,1.21694 -0.31824,1.21696 -0.84821,-0.51033 -0.84822,-0.51034 0.88372,1.08945 0.88371,1.08945 h 0.49617 0.49616 l 0.37064,-0.96585 z"
       id="careio_de_varzea" /><path
       style="fill:#e6e6e6;stroke-width:0.643897"
       d="m 50.502362,162.70201 1.295402,-0.69328 -0.383072,-0.99828 -0.383073,-0.99827 1.075396,-0.78635 1.075403,-0.78635 -0.485453,-0.78548 -0.485446,-0.78547 -1.010208,0.38765 -1.010208,0.38765 -0.5344,-0.82668 -0.534403,-0.82667 -0.594598,0.92408 -0.5946,0.92409 -0.418061,2.22846 -0.418063,2.22846 0.851688,0.53999 0.851687,0.53999 0.203303,0.01 0.203304,0.01 1.295402,-0.69327 z"
       id="tabatinga"
       inkscape:label="#tabatinga" /><path
       style="fill:#e6e6e6;stroke-width:0.643897"
       d="m 181.69822,163.93135 1.2037,-0.75175 -0.72951,-0.90415 -0.72953,-0.90416 -1.21361,-1.32844 -1.21363,-1.32844 1.05265,-0.5891 1.05265,-0.58908 v -0.5917 -0.59169 l -1.03084,0.39557 -1.03082,0.39556 -0.47707,-0.7719 -0.47706,-0.7719 -2.51645,-0.12683 -2.51647,-0.12683 0.18358,0.87265 0.18356,0.87265 -0.82747,1.05904 -0.82745,1.05905 0.96583,-0.68398 0.96586,-0.68397 1.28612,0.0401 1.28613,0.04 0.0184,0.6439 0.0184,0.6439 1.1247,1.67999 1.12469,1.67998 -0.40545,1.05658 -0.40545,1.05656 h 1.36542 1.36542 l 1.20371,-0.75173 z"
       id="novaolindadonorte" /><path
       style="fill:#e6e6e6;stroke-width:0.643897"
       d="m 134.64807,165.34215 0.2197,-0.65908 h 0.81365 0.81368 l 1.48483,-1.28778 1.48482,-1.2878 1.35025,-2e-5 1.35024,-2e-5 1.7134,-2.14738 1.7134,-2.14739 -0.47778,-0.77303 -0.47776,-0.77303 -1.71855,-0.31164 -1.71856,-0.31163 v 2.96128 2.96129 l -1.85203,-0.40679 -1.85201,-0.40676 -0.88453,0.87046 -0.88452,0.87048 -3.35088,1.66103 -3.35088,1.66105 0.45334,0.45629 0.45335,0.4563 2.24857,-0.36337 2.24859,-0.36338 z"
       id="path4581" /><path
       style="fill:#e6e6e6;stroke-width:0.643897"
       d="m 140.89003,172.89275 3.2069,-2.73656 3.21947,-3.28226 3.21948,-3.28227 0.91887,-0.29716 0.91888,-0.29717 -0.47395,-0.76687 -0.47396,-0.76686 h -1.57173 -1.57175 v -1.2498 -1.2498 l 0.64884,-0.401 0.64884,-0.40099 -0.83984,-0.83985 -0.83984,-0.83984 -1.474,-0.46783 -1.474,-0.46783 0.72374,1.35233 0.72374,1.35232 -1.79529,2.25002 -1.79529,2.25 -1.62762,3e-5 -1.62761,2e-5 -1.10263,1.2878 -1.10264,1.28778 h -0.97216 -0.97213 v 0.61473 0.61472 l -2.41461,0.43569 -2.41461,0.43569 -0.49669,0.28389 -0.49669,0.28389 3.66623,3.81687 3.66624,3.81686 h 0.38448 0.38446 z"
       id="beruri" /><path
       style="fill:#e6e6e6;stroke-width:0.643897"
       d="m 85.119612,176.02457 0.740735,-0.89253 3.837412,0.14294 3.837412,0.14293 1.273797,-1.18671 1.273777,-1.18669 -0.368868,-0.96124 -0.368867,-0.96124 h 0.712792 0.712792 l 0.02316,-0.80487 0.02315,-0.80487 1.515253,-1.8528 1.515243,-1.8528 0.65654,0.40576 0.65653,0.40576 1.62686,-1.93342 1.62686,-1.93341 h 0.565 0.56499 l 1.85069,-1.93169 1.85066,-1.93168 h 1.27761 1.27759 l 1.16449,-1.05385 1.16448,-1.05384 -2.56328,-2.48758 -2.56329,-2.4876 h -1.18726 -1.18725 l -0.98162,1.12683 -0.98162,1.12682 -0.60895,1.93169 -0.60894,1.93169 -3.49943,1.85442 -3.499428,1.85441 -3.058497,1.91511 -3.058516,1.9151 v 1.22697 1.22697 l -1.379782,1.12052 -1.379782,1.12052 -1.016952,1.12681 -1.016952,1.12683 h -0.722846 -0.722962 l -1.081151,1.19466 -1.081171,1.19467 0.406355,1.05897 0.406375,1.05897 h 0.818112 0.818103 l 0.740744,-0.89253 z"
       id="tefe" /><path
       id="coari"
       style="fill:#e6e6e6;stroke-width:0.643897"
       d="m 112.96936,137.31765 -0.0506,1.07312 -0.0506,1.07313 -0.80449,0.29887 -0.60479,0.50141 -1.32277,-0.26863 0.47889,1.55835 0.4789,1.55836 0.72644,0.90998 0.72574,0.90928 -0.8045,0.27074 -0.80519,0.27145 v 0.65821 0.65893 l 1.93177,2.43881 1.93177,2.43881 v 1.05414 1.05484 l 0.96554,0.3706 0.96624,0.3706 v 0.86497 0.86498 l 1.12657,0.65611 1.12727,0.65612 -1.77073,0.0197 -1.77143,0.0196 -0.0204,-0.80449 -0.0204,-0.8052 -1.32067,1.77072 -1.32137,1.77074 -1.39521,0.003 -1.3945,0.003 -2.05765,1.92826 -2.05836,1.92894 h -0.30731 -0.30732 l -1.93177,1.93178 -1.93106,1.93178 h -0.91421 -0.914194 l -1.549917,3.01826 -1.550621,3.01897 0.189871,0.84458 0.189167,0.84458 h -1.316442 -1.315749 v 0.68213 0.68214 l 0.635726,-0.39311 0.635012,-0.3931 1.417709,1.32066 1.417709,1.32066 h 1.127989 1.12868 l 0.40436,0.65471 0.40437,0.654 0.49367,-0.3045 0.49365,-0.30518 1.87622,0.56116 1.87693,0.56118 0.19268,0.0556 0.19338,0.0548 1.89943,-0.98241 v 7.1e-4 l 1.89942,-0.98242 v -0.58367 -0.58438 l 1.30029,-0.4121 1.29956,-0.4128 2.06327,-1.88465 2.06328,-1.88467 0.98312,-0.0591 0.98311,-0.0591 1.8699,-0.10197 1.86918,-0.10127 1.02813,-2.05062 1.02812,-2.04991 1.12938,-0.30521 1.1294,-0.30448 -0.37835,-0.98595 -0.37833,-0.98662 2.25175,-0.42264 2.25173,-0.42194 1.24543,-1.16033 1.24612,-1.16103 1.22432,-0.28621 1.22502,-0.28692 -1.71587,-0.70817 -1.71589,-0.70884 -0.37552,-1.16315 -0.37623,-1.16385 -2.22572,-1.51194 -2.22573,-1.51194 -0.83403,0.2834 -0.83334,0.28409 -2.40222,-1.50841 -2.40153,-1.50843 h -0.6104 -0.60971 l -1.31786,-1.67511 -1.31714,-1.67509 -0.4121,-2.19548 -0.41209,-2.19549 -0.50913,-0.31504 -0.50984,-0.31505 0.34528,-2.57523 0.34528,-2.57522 h -0.99648 -0.99718 l -0.32488,-0.8052 z" /><path
       style="fill:#e6e6e6;stroke-width:0.643897"
       d="m 72.302549,182.04002 v -0.67212 l 0.804875,0.11201 0.804864,0.11199 2.092662,-0.86888 2.092661,-0.86887 v -0.6698 -0.6698 l 1.287787,-0.80424 1.287797,-0.80423 v -0.91099 -0.91098 l 1.668428,-1.98282 1.668437,-1.98282 0.470339,0.2907 0.470348,0.2907 0.988717,-1.09384 0.988698,-1.09384 1.379791,-1.12051 1.379792,-1.12053 v -1.26209 -1.2621 l 1.126806,-0.6563 1.126826,-0.65632 -4.668246,-0.0195 -4.668255,-0.0196 v 0.96584 0.96583 l -0.482923,0.0512 -0.482912,0.0512 -3.327261,0.21959 -3.327251,0.21962 -1.389737,0.74375 -1.389718,0.74376 -1.239054,1.23905 -1.239054,1.23911 v 0.55707 0.55706 l -1.328569,1.68899 -1.32857,1.68901 -0.120189,4.1929 -0.120202,4.19291 2.736557,-1e-5 h 2.736556 z"
       id="carauari" /><path
       style="fill:#e6e6e6;stroke-width:0.643897"
       d="m 44.776004,183.2998 1.126817,-1.97981 v -0.91365 -0.91366 h 0.595483 0.595481 l -0.209454,-2.25364 -0.209453,-2.25363 h 0.901763 0.901764 v -0.5741 -0.57409 l 1.63731,-0.41095 1.637312,-0.41093 0.380864,-0.9925 0.380858,-0.99251 2.167153,-2.29785 2.167149,-2.29786 v -0.90688 -0.90687 l 1.287792,-2.66543 1.287791,-2.66542 v -1.54908 -1.54907 l 1.287792,-0.33678 1.28779,-0.33676 v -2.13514 -2.13515 l -1.301712,-0.41315 -1.301712,-0.41315 -1.917767,0.84889 -1.917767,0.84888 v 0.48672 0.48672 l -0.804869,0.0215 -0.80487,0.0214 -1.448765,1.20861 -1.448765,1.20861 v 0.4486 0.4486 l 0.912554,-0.35018 0.912555,-0.35019 0.375235,0.97786 0.375239,0.97783 v 0.54525 0.54525 l -1.011838,1.01183 -1.011838,1.01184 h 1.011838 1.011838 v 0.6439 0.6439 h -0.712787 -0.712786 l 0.400599,1.04393 0.400595,1.04393 -1.536163,1.37068 -1.536162,1.37067 -1.37113,1.12051 -1.371125,1.12052 v 1.151 1.15099 l -1.156463,0.9902 -1.156469,0.99019 -0.818404,3.82115 -0.818404,3.82114 -0.864502,1.72157 -0.8645,1.72155 0.371102,0.37111 0.371104,0.37111 0.697558,-0.004 0.697551,-0.004 z"
       id="saopaulo"
       inkscape:label="#saopaulo" /><path
       style="fill:#e6e6e6;stroke-width:0.643897"
       d="m 174.51216,185.29558 0.79603,-0.97368 -0.0783,-4.2155 -0.0782,-4.21547 0.89042,-1.42581 0.89043,-1.4258 1.13547,-0.36038 1.13547,-0.36039 0.88731,-1.72508 0.8873,-1.72507 1.00447,-2.41462 1.00446,-2.4146 h -0.2431 -0.24309 l -0.89828,0.89826 -0.89826,0.89827 -1.72331,-0.32943 -1.72331,-0.32943 v -1.27437 -1.27436 l -1.01631,-1.72048 -1.01633,-1.72047 -3.81615,-0.0877 -3.81617,-0.0877 -0.37938,1.51163 -0.37939,1.51161 -2.03197,0.19725 -2.03195,0.19724 0.16694,0.82278 0.16695,0.8228 -1.00458,0.38549 -1.00458,0.3855 -1.59286,-1.49643 -1.59286,-1.49641 -2.17216,0.0616 -2.17217,0.0615 -1.1924,1.07832 -1.1924,1.07832 -1.88162,1.51767 -1.88159,1.51766 1.75463,2.30045 1.75465,2.30045 3.66838,-0.41134 3.6684,-0.41133 0.64389,-0.46735 0.6439,-0.46737 1.63256,-0.38831 1.63256,-0.38833 1.58691,2.58724 1.58692,2.58725 -0.18919,0.93178 -0.1892,0.93178 h 1.06388 1.06386 l -0.41225,1.64253 -0.41225,1.64251 1.35223,1.89903 1.35222,1.89903 0.23366,1.7706 0.23364,1.77058 0.0444,0.4691 0.0444,0.46912 1.77072,-0.78321 1.77072,-0.78322 0.79602,-0.97368 z"
       id="borba" /><path
       style="fill:#e6e6e6;stroke-width:0.643897"
       d="m 48.478578,187.86305 0.511904,-0.8283 1.353702,0.354 1.353699,0.35401 v -0.51381 -0.51381 l 1.709635,-0.4291 1.709639,-0.42908 0.383021,0.52026 0.383029,0.52026 2.736557,0.0555 2.736557,0.0555 v -0.87639 -0.87637 l 1.57059,-0.59713 1.570591,-0.59714 0.780279,-1.45799 0.78028,-1.45795 0.143447,-3.67148 0.143446,-3.67146 1.369059,-1.92266 1.369057,-1.92267 v -0.95233 -0.95231 l 1.126818,-0.41307 1.126816,-0.41306 1.775126,-0.98708 1.775136,-0.98707 3.376032,-0.2427 3.376043,-0.24269 -0.221291,-1.14754 -0.221272,-1.14754 -1.553737,-1.84651 -1.553737,-1.84652 0.383571,-0.62065 0.383581,-0.62063 0.833061,0.69137 0.833051,0.69137 0.315337,-2.10887 0.315328,-2.10887 -0.699221,-0.44487 -0.699222,-0.44486 1.092827,-2.29169 1.092836,-2.2917 h 1.620154 1.620163 l 0.08041,-1.28778 0.0806,-1.2878 0.08051,-0.69579 0.0806,-0.69581 1.126816,-0.82395 1.126816,-0.82396 v -1.23979 -1.23981 H 86.614731 85.47325 l 0.01466,1.59756 0.01475,1.59753 -2.253642,0.47526 -2.253633,0.47527 -0.611691,-0.60105 -0.611731,-0.60103 H 78.934727 78.09766 v 1.2878 1.28778 l -0.965845,0.0806 -0.965836,0.0804 -0.643903,0.16097 -0.643894,0.16097 -1.231189,0.0806 -1.231199,0.0804 -0.442661,2.62005 -0.44265,2.62006 -1.062702,0.43845 -1.062712,0.43845 -0.06439,0.80488 -0.06439,0.80486 -0.09658,0.96975 -0.0966,0.96976 -4.346297,-0.16489 -4.346296,-0.16487 -0.210335,1.839 -0.210329,1.83901 -1.132161,2.02437 -1.132156,2.02436 -0.437231,1.75773 -0.43723,1.75773 -1.92268,1.96687 -1.92268,1.96688 v 0.34574 0.34574 l -0.8202,0.75888 -0.820202,0.75887 -0.858525,0.18397 -0.858531,0.18398 -0.735877,0.78186 -0.735883,0.78188 -0.205969,1.93169 -0.205971,1.93169 -0.598899,0.21463 -0.5989,0.21462 v 0.86001 0.86001 l -1.126818,1.9798 -1.126818,1.97979 -0.396085,0.004 -0.396088,0.004 -1.789612,1.4077 -1.789604,1.40771 1.159302,0.40667 1.159303,0.40665 2.863185,-0.43453 2.863192,-0.43451 0.511904,-0.82828 z"
       id="jutal"
       inkscape:label="#jutal" /><path
       style="fill:#e6e6e6;stroke-width:0.643897"
       d="m 39.151896,188.41208 2.308418,-2.02682 -0.349771,-0.9115 -0.349776,-0.9115 0.853832,-1.72992 0.85383,-1.72993 0.855951,-3.86337 0.855951,-3.86338 1.144208,-1.2878 1.144202,-1.28777 -0.05551,-0.32195 -0.05551,-0.32195 0.419214,-1.28779 0.419222,-1.2878 2.250847,-1.45468 2.250847,-1.45469 v -0.59203 -0.59204 l -2.928876,0.1958 -2.928875,0.19581 -0.932652,1.20702 -0.932656,1.20702 0.376723,1.28779 0.376724,1.2878 -0.04179,1.35697 -0.0418,1.35696 -1.61679,2.82836 -1.616796,2.82835 -0.01171,0.96584 -0.0117,0.96584 -0.961878,1.84432 -0.961877,1.84432 v 1.4789 1.4789 l -1.981091,1.66698 -1.981122,1.66698 -0.755468,0.01 -0.755466,0.01 0.965843,0.62417 0.965845,0.62417 0.460516,0.01 0.460517,0.01 2.308426,-2.02683 z"
       id="benjamin"
       inkscape:label="#benjamin" /><path
       style="fill:#e6e6e6;stroke-width:0.643897"
       d="m 22.471609,194.5592 0.714882,-0.90082 h 1.017831 1.017833 l 0.425079,-0.68779 0.425079,-0.68779 0.937208,0.35964 0.937209,0.35964 1.533503,-1.65468 1.533503,-1.65467 0.84461,-0.17356 0.844611,-0.17355 1.287792,-0.51359 1.287792,-0.5136 1.770713,-1.63582 1.770714,-1.63581 v -1.77321 -1.77323 l 0.594354,-0.36734 0.594361,-0.36732 0.440522,-2.08528 0.440528,-2.08528 1.665963,-3.10064 1.665966,-3.10062 -0.690746,-1.83 -0.690746,-1.82999 0.995591,-0.99559 0.995586,-0.99559 -1.556921,-1.29619 -1.556927,-1.29619 -2.345718,-0.0214 -2.345721,-0.0215 -0.346997,0.90427 -0.346999,0.90425 -4.517244,1.02743 -4.517245,1.02743 h -1.364619 -1.364619 l -2.0497,1.45037 -2.049699,1.45039 -1.287792,0.79657 -1.287791,0.79658 -2.384723,1.45257 -2.384724,1.45258 -0.411106,2.57844 -0.411108,2.57846 -1.665492,2.45424 -1.665491,2.45422 0.7992409,2.21027 0.7992421,2.21026 -0.388939,0.62932 -0.388938,0.62931 -2.7877666,1.23317 -2.7877666,1.23316 -0.4430424,0.71685 -0.4430443,0.71687 h 3.4506492 3.4506477 l 0.703547,0.70353 0.703546,0.70355 1.314591,-0.70355 1.314588,-0.70349 h 0.686227 0.686226 v 0.96583 0.96584 l 0.643896,0.0806 0.643896,0.0804 0.590237,0.0804 0.590238,0.0804 0.490004,0.48999 0.490003,0.49002 1.334369,-0.39406 1.334368,-0.39404 z"
       id="atataianorte"
       inkscape:label="#atataianorte" /><path
       style="fill:#e6e6e6;stroke-width:0.643897"
       d="m 97.843333,196.67856 3.326377,-0.14712 1.30555,-1.18151 1.30557,-1.18152 0.19729,-1.70378 0.19727,-1.70377 1.27278,-9.8e-4 1.27278,-9.8e-4 0.65781,-1.93029 0.6578,-1.9303 1.15284,-1.27498 1.15284,-1.27498 0.36684,-1.46158 0.36684,-1.46157 h 0.59018 0.59018 l 0.40502,2.02504 0.405,2.02504 1.8454,0.69656 1.84538,0.69655 -0.3146,0.81982 -0.3146,0.81984 h 0.62369 0.6237 v 1.93169 1.93169 h 4.54012 4.54012 l 1.00363,-2.41463 1.00362,-2.4146 3.33265,-3.86337 3.33263,-3.86338 1.05855,-1.67871 1.05856,-1.67869 -3.05108,-3.00521 -3.05107,-3.00518 -0.36062,0.36062 -0.36061,0.36063 -1.12861,-2.37836 -1.12861,-2.37836 -0.59742,1.06753 -0.59742,1.06756 h -0.86048 -0.86048 l -1.06943,2.25363 -1.06941,2.25363 h -2.72383 -2.72382 l -2.06328,1.88453 -2.06328,1.8845 -1.29969,0.41251 -1.29971,0.41251 v 0.58398 0.58396 l -1.94963,1.0082 -1.94962,1.00819 -2.39667,-0.47341 -2.39668,-0.47339 -0.64389,-0.0983 -0.64388,-0.0983 -0.48293,-0.17858 -0.482929,-0.17854 -0.482922,-0.092 -0.482913,-0.092 -3.195649,-1.56113 -3.195648,-1.56113 h -3.055791 -3.055781 l -1.153371,0.97611 -1.153381,0.97609 -1.126806,-0.25559 -1.126826,-0.2556 v -0.68392 -0.68394 l -1.921403,2.17992 -1.921393,2.17991 -0.01036,0.41993 -0.01036,0.41993 -2.005659,0.69918 -2.00565,0.69917 -0.56799,-0.35103 -0.56798,-0.35103 0.660248,1.73658 0.660249,1.73658 -0.984145,1.08748 -0.984134,1.08747 v 0.4322 0.43224 h 1.25749 1.25749 l 1.640046,-0.74726 1.640035,-0.74725 v -0.61033 -0.61035 l 1.474522,0.37008 1.474522,0.37008 4.044869,1.8361 4.044859,1.83612 -1.026146,0.85163 -1.026165,0.85164 -4.976148,0.25695 -4.976158,0.25696 -0.804874,1.06341 -0.804865,1.06341 v 0.62063 0.62062 l 1.126817,-0.96777 1.126816,-0.96777 1.085723,-0.38383 1.085714,-0.38386 1.51707,1.19333 1.51707,1.19333 3.192268,1.01167 3.192278,1.01168 2.575575,-0.33538 2.575584,-0.33537 3.326381,-0.14711 z"
       id="tapaua" /><path
       style="fill:#e6e6e6;stroke-width:0.643897"
       d="m 183.05263,197.6103 v -0.55536 l -1.93169,-2.43072 -1.93169,-2.43071 0.0108,-1.03827 0.0109,-1.03829 1.46082,-1.38371 1.46079,-1.38372 3.78344,-8.59666 3.78343,-8.59667 3.76415,-7.56579 3.76414,-7.56577 h -0.36925 -0.36923 l -1.21288,0.64911 -1.21287,0.6491 -2.60817,-2.48109 -2.60819,-2.48109 v -0.7436 -0.74359 h -0.64388 -0.6439 v 0.98194 0.98194 l -1.93169,0.38633 -1.93169,0.38635 v 0.56341 0.56339 h -1.41086 -1.41086 l 1.24989,0.95363 1.24988,0.9536 -0.85987,0.56714 -0.85985,0.56715 0.0964,0.24997 0.0966,0.24995 -0.4709,1.22711 -0.47089,1.22711 1.26551,1.02652 1.26551,1.02653 0.41028,1.07175 0.41026,1.07175 -1.24646,2.44485 -1.24645,2.44485 v 0.80725 0.80727 l -2.84038,2.75899 -2.84038,2.759 -0.2895,7.3978 -0.28951,7.39782 2.16093,2.16093 2.16093,2.16093 -0.38864,1.54846 -0.38864,1.54847 h 2.0015 2.00149 v -0.55536 z"
       id="maues" /><path
       style="fill:#e6e6e6;stroke-width:0.643897"
       d="m 75.117206,194.99739 0.408221,-2.55289 0.721663,-0.44602 0.721653,-0.446 3.944893,-0.15105 3.944873,-0.15104 1.126826,-0.0838 1.126816,-0.0838 v -0.6439 -0.6439 h -0.734335 -0.734354 l -2.769607,-1.3832 -2.769598,-1.3832 -3.210137,1.38095 -3.210138,1.38098 -1.012663,-0.3886 -1.012663,-0.3886 v -1.18089 -1.1809 l 0.643893,-0.39796 0.643894,-0.39794 v -1.2498 -1.24979 h -3.503422 -3.50343 l -0.422493,0.68362 -0.422499,0.68361 -1.547191,0.58825 -1.547192,0.58823 v 0.94527 0.94529 l -3.380452,-0.0657 -3.380453,-0.0658 -0.473064,-0.70262 -0.473057,-0.70265 -0.0098,2.37268 -0.0098,2.37269 -0.627959,1.65167 -0.62796,1.65165 h 0.49918 0.499181 l 0.718414,-0.71841 0.718414,-0.71841 1.485325,1.04036 1.48532,1.04035 h 1.681103 1.681101 l 0.433883,0.43391 0.43389,0.43388 3.951241,-0.16127 3.951247,-0.16125 0.39043,0.53224 0.39043,0.53224 1.287797,0.72882 1.287787,0.72881 0.398344,-0.23163 0.398353,-0.23162 0.408221,-2.5529 z"
       id="itamarati" /><path
       style="fill:#e6e6e6;stroke-width:0.643897"
       d="m 20.790885,199.26028 v -1.48097 l 0.80487,-0.81824 0.804869,-0.81824 -1.753892,0.4331 -1.753894,0.4331 -2.824877,-1.3675 -2.824876,-1.36751 -1.063519,0.40812 -1.063518,0.4081 -0.796669,-0.64041 -0.7966703,-0.64042 -2.7013605,0.0122 -2.7013625,0.0122 -0.3290222,0.85743 -0.3290223,0.85742 0.4548016,0.25601 0.4548006,0.25601 6.1170086,1.97753 6.117011,1.97755 1.287792,0.28796 1.287791,0.28797 0.80487,0.0747 0.804869,0.0747 v -1.48096 z"
       id="guajara"
       inkscape:label="#guajara" /><path
       id="ipixuna"
       style="fill:#e6e6e6;stroke-width:0.643897"
       inkscape:label="#ipixuna"
       d="m 38.272954,190.76103 -2.463415,0.12521 -2.462712,0.12587 -1.277769,0.1962 -1.277066,0.19621 -1.442326,1.5246 -1.441622,1.5239 -0.822076,-0.31223 -0.822076,-0.31294 -1.378331,0.51266 -1.378332,0.51194 -1.035858,2.07734 -1.03656,2.07804 v 0.85443 0.85443 l 1.448653,0.31504 1.448655,0.31505 1.609693,0.25316 1.609695,0.25387 1.298163,0.0879 1.298163,0.0872 3.687739,-3.75875 3.687036,-3.75948 0.374822,-1.87481 z" /><path
       style="fill:#e6e6e6;stroke-width:0.643897"
       d="m 36.016288,202.26728 -7.03e-4,7e-4 c 4.25e-4,8e-5 9.77e-4,-5e-5 0.0014,0 z"
       id="path4966" /><path
       style="fill:#e6e6e6;stroke-width:0.643897"
       d="m 34.526847,201.83621 c -0.131933,0.027 -0.179466,0.051 -0.182137,0.0731 0.0097,-9.1e-4 0.01889,-9.8e-4 0.02673,-0.004 0.03926,-0.0122 0.07911,-0.0245 0.118842,-0.0366 0.01225,-0.0109 0.02452,-0.0214 0.03657,-0.0324 z"
       id="path4964" /><path
       style="fill:#e6e6e6;stroke-width:0.643897"
       d="m 47.834775,196.87772 v 0.71308 0.71237 l -1.024605,-0.39311 -1.023904,-0.39239 -1.831213,1.30308 -1.830507,1.30379 -2.698998,0.95217 -2.698997,0.95217 -0.526719,-0.0253 c -0.0014,0.003 -0.0034,0.004 -0.0056,0.007 5.18e-4,9.7e-4 8.83e-4,0.003 0.0014,0.004 0.0064,0.0185 -0.02862,0.0273 -0.04289,0.0408 -0.0039,0.004 -0.008,0.007 -0.01198,0.0109 0.0017,9.8e-4 0.0035,0.004 0.0049,0.006 0.0046,0.007 0.0082,0.0143 0.01062,0.0218 0.0095,0.01 0.01546,0.0208 0.01687,0.0351 0.0031,0.0309 -0.0098,0.0591 -0.03163,0.0844 -0.0041,0.0122 -0.0077,0.0246 -0.01129,0.0359 -0.006,0.0189 -0.03346,0.0229 -0.05064,0.0323 -0.04534,0.0268 -0.123795,0.0683 -0.168776,0.0921 -0.03011,0.0153 -0.06044,0.0306 -0.09072,0.0457 -0.02663,0.0136 -0.05542,0.0559 -0.08016,0.0393 -0.0132,-0.008 -0.02522,-0.0174 -0.03657,-0.0253 -0.03267,0.0122 -0.06554,0.0247 -0.09846,0.0366 l 2.99787,0.46695 6.845947,1.0661 1.032342,0.60336 1.031637,0.60268 0.483119,0.0197 0.482418,0.0197 v -0.96554 -0.96624 h 0.63572 0.635016 l 0.974677,-2.33191 0.973975,-2.33261 v -0.88678 -0.88748 h -1.931775 z"
       id="envira"
       inkscape:label="#envira" /><path
       style="fill:#e6e6e6;stroke-width:0.643897"
       d="m 52.417726,187.21956 -0.42475,0.68777 -0.425455,0.68775 -1.009838,-0.38818 -1.010542,-0.38749 -0.48312,0.7813 -0.482415,0.78128 -1.178614,0.2595 -1.17791,0.25879 -3.642732,0.033 -3.64203,0.0331 -0.419125,2.79394 -0.418422,2.79393 -1.52601,1.20041 -1.526009,1.20042 -1.647668,1.95779 -1.646966,1.95708 2.6125,0.40718 c -0.0076,-0.014 -0.01225,-0.029 -0.01265,-0.045 -4.54e-4,-0.0163 0.006,-0.0299 0.01618,-0.0422 v -7.1e-4 l 7.04e-4,-7e-4 c 6.15e-4,-9.7e-4 0.0014,-0.003 0.0021,-0.004 -0.0082,-0.007 -0.01595,-0.0149 -0.0218,-0.026 -0.0051,-4.1e-4 -0.01007,-9.8e-4 -0.01476,-0.006 -0.0021,-9.8e-4 -0.0037,-0.003 -0.0056,-0.004 -9.77e-4,6.5e-4 -0.002,9.8e-4 -0.0028,0.003 -6.07e-4,-0.003 -0.0015,-0.004 -0.0022,-0.007 -0.05557,-0.0447 -0.0777,-0.12288 -0.118147,-0.18283 0.0222,-0.0138 0.04444,-0.0271 0.06751,-0.0394 0.0028,-0.003 0.0066,-0.004 0.01061,-0.006 h 7.04e-4 c 0.03491,-0.0183 0.07091,-0.0349 0.106894,-0.0506 0.0321,-0.0142 0.06264,-0.0333 0.09705,-0.0402 0.05137,-0.0108 0.118733,-0.0465 0.15682,-0.0108 0.0018,9.8e-4 0.0032,0.004 0.0049,0.006 0.06383,-0.0169 0.127633,-0.032 0.191981,-0.0429 0.03983,-0.007 0.08074,-0.008 0.120951,-0.0122 0.02724,0.007 0.06335,5e-4 0.08579,0.0141 l 3.376207,-1.1751 3.794631,-1.32137 1.572424,-1.36497 1.572422,-1.36428 0.750346,-0.0866 0.749644,-0.0866 2.394499,-0.0745 2.394498,-0.0745 -0.370602,-0.96554 -0.370603,-0.96625 h 0.649785 0.649785 l 0.706746,-2.02741 0.706746,-2.02812 v -1.51334 -1.51335 h -0.605517 z"
       id="eirunepe" /><path
       style="fill:#e6e6e6;stroke-width:0.643897"
       d="m 57.516429,211.68747 h 0.562057 l 0.423915,-2.25964 0.423909,-2.25963 1.697927,-0.44452 1.697928,-0.44451 2.408337,0.0458 2.408338,0.0458 1.455038,1.05541 1.455037,1.0554 2.482693,1.65394 2.4827,1.65393 3.13697,-0.43143 3.13696,-0.43146 0.439768,-3.31512 0.439769,-3.31514 2.16196,-2.09954 2.161951,-2.09955 h -0.850491 -0.850481 l -2.652249,-2.626 -2.65224,-2.62598 -1.490535,1.49918 -1.490525,1.49917 -1.578895,0.8297 -1.578885,0.82971 -0.55441,-0.99068 -0.554419,-0.99067 h -0.880192 -0.880183 l -0.264604,-0.79381 -0.264595,-0.79378 -3.49146,0.73928 -3.491461,0.7393 -0.643896,-0.75962 -0.643896,-0.75962 -2.253635,-0.21314 -2.253637,-0.21315 -0.763711,-0.62717 -0.763712,-0.62715 -1.285337,0.6879 -1.285346,0.6879 -0.331227,1.1275 -0.33122,1.1275 -0.43629,2.45912 -0.436291,2.45911 -1.207781,0.75428 -1.207782,0.75427 v 0.94982 0.94981 l 3.046028,3.09252 3.046025,3.09254 0.870012,-0.33386 0.870007,-0.33386 h 0.562057 z"
       id="pauini" /><path
       style="fill:#e6e6e6;stroke-width:0.643897"
       d="m 180.33583,212.49234 0.18074,-2.41462 0.16182,-3.21946 0.16183,-3.21949 0.78425,-1.40644 0.78425,-1.40643 v -1.00818 -1.00817 h -1.82436 -1.82438 l -0.38816,-0.38815 -0.38815,-0.38817 0.58685,-1.54352 0.58686,-1.54354 -0.78894,-0.008 -0.78893,-0.008 -1.50088,-2.31613 -1.50089,-2.31614 0.38633,-1.53927 0.38634,-1.53927 -1.46104,0.0122 -1.46103,0.0122 -2.75949,1.8703 -2.75948,1.87031 -6.09408,2.41197 -6.09409,2.41201 v 2.6527 2.6527 l 1.33208,2.55075 1.33208,2.55076 -0.37187,3.38045 -0.37185,3.38046 h 0.64952 0.64953 l -0.0762,0.48292 -0.0762,0.48291 0.0762,0.48294 0.0762,0.48293 h 11.10719 11.1072 z"
       id="apui" /><path
       style="fill:#e6e6e6;stroke-width:0.643897"
       d="m 156.49228,194.12739 c -0.004,0.003 -0.0122,0.011 -0.0183,0.0176 0.0109,-0.01 0.0159,-0.0151 0.0183,-0.0176 z"
       id="path5079" /><path
       id="manicore"
       style="fill:#e6e6e6;stroke-width:0.643897"
       d="m 147.23145,167.8969 -1.29746,1.45147 -1.29746,1.45147 -2.44935,1.93177 -2.45006,1.93177 -0.87834,0.51477 -0.87905,0.51546 v 0.63855 0.63922 l -0.62727,0.77779 -0.62728,0.77777 -3.3073,4.08154 -3.30729,4.08224 0.71519,0.71519 0.71518,0.71519 v -0.77284 -0.77285 h 1.14487 1.14415 l 1.40576,-0.98452 1.40575,-0.98453 1.70393,0.42826 1.70463,0.42757 0.57455,-0.8924 0.57453,-0.89169 0.62376,0.96553 0.62307,0.96624 -0.62236,0.21449 -0.62236,0.21378 0.96483,1.37763 0.96483,1.37833 v 1.70954 1.70955 l -0.96552,0.80099 -0.96625,0.80168 v 0.81856 0.81786 l -0.96554,0.3706 -0.96552,0.3706 v 0.66385 0.66456 h 0.91208 0.91209 v 2.89871 2.89871 l -1.33684,0.93601 -1.33684,0.93599 0.74612,0.89874 0.74543,0.89872 0.01,1.54428 0.01,1.54502 -0.40085,2.41418 -0.40154,2.41489 h 0.63571 0.63573 l 0.81715,0.0218 -0.9135,0.006 0.99226,-0.004 0.22715,0.006 0.80308,-9.8e-4 2.22151,-0.0108 0.0992,0.0211 0.50843,0.0197 2.47045,-0.0344 3.70814,-0.0324 h 0.006 l 2.27847,-0.0204 0.0122,0.0155 -0.77005,0.007 3.79323,0.006 v -0.10341 l 0.052,-0.0331 -0.052,9.7e-4 v -0.22854 -0.36427 l -0.60267,-1.12657 -0.60266,-1.12657 0.55765,-2.47468 0.55837,-2.47538 -1.19829,-2.63428 -1.19832,-2.6343 -0.21096,-3.06257 -0.20747,-3.026 0.87975,-0.37624 0.003,-0.008 0.11037,-0.0436 c -0.02,-0.0637 -0.0181,-0.14705 0.0162,-0.24542 0.004,0.0122 0.006,0.0208 0.01,0.0331 l -0.007,-0.0402 v -7.1e-4 c 0.0209,-0.0581 0.0415,-0.0914 0.0204,-0.154 l 0.58578,-1.76933 v -4.46902 -4.46903 l -0.65401,-0.40436 -0.65471,-0.40436 0.47469,-0.76089 0.47469,-0.7602 0.1758,-1.12657 0.17581,-1.12727 h -0.72433 -0.72433 l 0.36568,-2.25315 0.36568,-2.25385 h -0.5654 -0.5654 l -0.38044,0.61601 -0.38046,0.61534 -0.97326,-0.37342 -0.97257,-0.37341 0.99366,-1.09774 0.99366,-1.09774 v -0.43249 -0.43249 h -0.91911 -0.91913 l -1.86003,-2.25596 z m 7.5344,27.0807 0.0253,0.14065 0.01,-0.0197 c -0.0122,-0.0432 -0.0219,-0.0762 -0.0344,-0.12098 z m 0.0344,0.12098 c 0.2296,0.8161 0.38966,1.34297 0.007,-0.0148 z m -1.94162,19.80226 -1.52109,-0.003 1.07877,0.006 z m 1.62447,-20.97033 c 0.006,0.0204 0.0122,0.0452 0.0176,0.0661 -0.003,-0.0108 -0.007,-0.0219 -0.01,-0.0331 -0.003,-0.01 -0.006,-0.0228 -0.008,-0.0331 z"
       sodipodi:nodetypes="ccccccccccccccccccccccccccccccccccccccccccccccccccccccccccccccccccccccccccccccccccccccccccccccccccccccccccccccccccccccccccccccccccccc" /><path
       id="novoaripuana"
       style="fill:#e6e6e6;stroke-width:0.643897"
       d="m 162.48239,170.00589 -1.62657,0.31153 -1.62726,0.31083 v 0.56891 0.56893 h -2.42053 -2.42123 l -0.85653,1.37198 -0.85723,1.37201 1.66805,-0.41842 1.66808,-0.41842 v 1.17088 1.17158 l -0.74543,0.74542 -0.74542,0.74543 0.72433,0.87271 0.72431,0.8727 -0.0457,2.85653 -0.0457,2.85722 0.14277,0.64416 0.14345,0.64346 -0.0767,3.7025 -0.0697,3.40785 c 5.8e-4,0.003 9.8e-4,0.004 9.8e-4,0.007 0.0571,0.21481 0.15261,0.41658 0.22573,0.62588 0.10873,-0.0122 0.21755,-0.0213 0.32701,-0.0239 0.13999,0.0149 0.21216,-9.8e-4 0.30661,0.16034 0.0445,0.0766 0.0317,0.15357 -0.006,0.22292 l 1.22573,-0.48101 4.35159,-1.70674 v -0.006 l 4.25034,-1.88254 2.8333,-2.27144 -0.0752,-0.0232 0.0675,0.007 -0.38467,-2.15681 -0.38536,-2.15611 -1.27848,-1.82206 -1.27776,-1.82136 0.39099,-1.55907 0.39099,-1.55836 h -0.97819 -0.97748 v -1.67158 -1.67087 l -1.27074,-1.7848 z" /><path
       style="fill:#e6e6e6;stroke-width:0.643897"
       d="m 138.8627,211.36574 0.4162,-3.54119 -0.78734,-1.26075 -0.78735,-1.26075 1.328,-1.47604 1.32801,-1.47603 -0.0633,-1.65598 -0.0634,-1.65599 -1.13174,-1.13148 -1.13172,-1.13147 1.93659,-2.34946 1.9366,-2.34942 v -1.43274 -1.43273 l -0.71965,-1.57946 -0.71963,-1.57945 -1.5926,-0.30446 -1.59259,-0.30444 -2.75381,1.53915 -2.75383,1.53914 -1.47588,-0.16845 -1.47588,-0.16848 -0.56716,2.12296 -0.56717,2.12294 -0.93959,0.36055 -0.93959,0.36056 v 0.91716 0.91716 l -0.98502,0.37799 -0.98504,0.378 0.38372,1.20901 0.38373,1.20902 -0.84746,2.41712 -0.84741,2.41714 -1.28779,1.10539 -1.2878,1.10541 4.38864,0.0214 4.38862,0.0215 1.24546,0.66655 1.24546,0.66655 v 0.83438 0.83438 l 1.5555,0.83249 1.55552,0.83247 0.31589,1.20802 0.3159,1.208 h 1.02612 1.02614 v 1.2878 1.28779 h 0.55524 0.55524 l 0.41618,-3.54121 z"
       id="path4539" /><path
       style="fill:#e6e6e6;stroke-width:0.643897"
       d="m 113.51189,215.12158 v -1.50242 h 0.96585 0.96584 l 0.0743,-0.80488 0.0743,-0.80487 0.1496,-0.64389 0.14959,-0.6439 0.0981,-0.80487 0.0981,-0.80486 h 0.82701 0.827 l 1.14187,-1.93301 1.14186,-1.93301 -0.33716,-0.54553 -0.33715,-0.54553 1.53636,-0.82224 1.53635,-0.82224 -0.31444,-0.81941 -0.31444,-0.81942 0.6878,-0.42509 0.68779,-0.42506 v -2.46871 -2.46868 l 0.96585,-0.37064 0.96584,-0.37062 v -0.6641 -0.66411 h -4.18533 -4.18531 l -0.0763,-1.12683 -0.0763,-1.1268 0.10451,-0.80488 0.10451,-0.80486 h -0.67211 -0.67213 v -0.9432 -0.94318 l -1.44877,-0.77173 -1.44876,-0.77173 -0.71689,-0.9723 -0.71688,-0.97229 -1.21481,1.84638 -1.21479,1.84638 -0.6439,1.96765 -0.64389,1.96765 -1.44877,0.20576 -1.44878,0.20575 v 1.56497 1.56494 h 2.57559 2.57559 v 1.56783 1.56781 l 0.69022,1.81263 0.69022,1.81264 0.22027,3.21948 0.22028,3.21947 -0.48859,0.64392 -0.4886,0.64388 -0.38169,1.07466 -0.38167,1.07469 1.27886,1.47453 1.27885,1.47454 -1.38653,1.04588 -1.38655,1.04587 h 1.99915 1.99915 z"
       id="canutama" /><path
       style="fill:#e6e6e6;stroke-width:0.643897"
       d="m 77.428521,222.47274 -0.117348,-1.44876 0.07132,-1.40277 0.07122,-1.40278 1.028383,-1.02837 1.028383,-1.02839 -0.382184,-0.99594 -0.382174,-0.99594 0.664245,-1.24114 0.664244,-1.24116 h -0.509829 -0.509829 l -2.118758,0.60766 -2.118757,0.60763 -2.706209,-1.91652 -2.706212,-1.91653 -1.434013,-1.00916 -1.434015,-1.00913 H 64.334767 62.13254 l -1.321093,0.4193 -1.321094,0.4193 0.338019,0.88086 0.338014,0.88087 -1.088822,1.66175 -1.088827,1.66176 H 57.008411 56.02808 l 2.503151,1.99796 2.503144,1.99798 4.507272,2.27904 4.507271,2.27904 3.219477,1.14906 3.219477,1.14906 0.529008,0.0471 0.528998,0.0471 -0.117357,-1.44876 z"
       id="bocadoacre" /><path
       style="fill:#e6e6e6;stroke-width:0.643897"
       d="m 85.369598,224.85283 2.419762,-1.64427 -0.376605,-0.60937 -0.376596,-0.60937 h 3.128695 3.128705 l 0.772662,0.77268 0.772682,0.77267 0.772672,-0.77267 0.772683,-0.77268 h 1.159008 1.159018 v -0.5688 -0.56878 l 1.400336,-0.3662 1.40034,-0.36621 0.7262,0.99314 0.72621,0.99315 0.70928,-0.86302 0.7093,-0.86301 0.22268,-1.60561 0.22266,-1.60558 1.61759,-0.32611 1.61759,-0.32607 1.60189,-1.14497 1.60189,-1.14498 -0.71808,-0.46476 -0.71809,-0.46478 -0.40043,-1.28779 -0.40042,-1.28779 0.92273,-1.77721 0.92271,-1.77721 -0.58203,-3.37396 -0.58203,-3.37395 -0.7012,-2.41461 -0.70122,-2.41461 h -2.40205 -2.40205 l -1.41347,0.99005 -1.4135,0.99004 -4.363873,0.29319 -4.36387,0.2932 -0.965855,0.0799 -0.965835,0.08 -2.897536,-0.64006 -2.897536,-0.64007 -1.287777,-0.47449 -1.287797,-0.47449 1.93169,1.6599 1.931681,1.6599 1.448758,0.0232 1.448778,0.0231 v 0.88774 0.88772 l -1.981567,0.82079 -1.981566,0.82078 -0.885008,1.3507 -0.884999,1.35068 -0.14443,2.57488 -0.144421,2.57489 -1.174337,1.15191 -1.174328,1.15189 v 1.78353 1.78354 l -0.945358,1.24989 -0.945367,1.24988 -0.02052,2.61975 -0.02052,2.61973 2.092652,1.04149 2.092661,1.04147 0.333461,0.0412 0.333451,0.0412 2.419762,-1.64427 z"
       id="labrea" /></g></svg>
