<svg width="23" height="23" viewBox="0 0 23 23" fill="none" xmlns="http://www.w3.org/2000/svg">
<path d="M11.614 0C8.73928 0 5.97951 1.15 3.90968 2.99L3.6797 1.15C3.6797 0.46 3.10475 8.99658e-08 2.4148 0.115C1.72486 0.115 1.2649 0.69 1.37989 1.38L1.60987 4.485C1.72486 5.98 2.98976 7.13 4.48463 7.13H4.71461L7.81936 6.9C8.5093 6.9 8.96927 6.325 8.85428 5.635C8.85428 4.945 8.27932 4.485 7.58938 4.6L5.28957 4.715C7.01443 3.22 9.19925 2.3 11.4991 2.3C16.5586 2.3 20.6983 6.44 20.6983 11.5C20.6983 16.56 16.5586 20.7 11.4991 20.7C6.43947 20.7 2.29981 16.56 2.29981 11.5C2.29981 10.81 1.83985 10.35 1.14991 10.35C0.459962 10.35 -2.69509e-08 10.81 0 11.5C0 17.825 5.17458 23 11.4991 23C17.8235 23 22.9981 17.825 22.9981 11.5C23.1131 5.175 17.9385 -2.69531e-08 11.614 0Z" fill="#76B07B"/>
</svg>
